<svg width="72" height="35" viewBox="0 0 72 35" fill="none" xmlns="http://www.w3.org/2000/svg">
<path d="M41.912 0.0159998V0.975999C40.888 1.008 40.12 1.136 39.608 1.36C39.096 1.552 38.744 1.936 38.552 2.512C38.392 3.056 38.312 3.92 38.312 5.104V28.912C38.312 30.064 38.392 30.928 38.552 31.504C38.744 32.08 39.096 32.464 39.608 32.656C40.12 32.848 40.888 32.976 41.912 33.04V34C41.016 33.936 39.88 33.904 38.504 33.904C37.16 33.872 35.784 33.856 34.376 33.856C32.84 33.856 31.4 33.872 30.056 33.904C28.712 33.904 27.624 33.936 26.792 34V33.04C27.88 32.976 28.696 32.848 29.24 32.656C29.816 32.464 30.2 32.08 30.392 31.504C30.584 30.928 30.68 30.064 30.68 28.912V2.944H31.016L19.112 34.048H18.344L5.384 3.136V26.128C5.384 27.888 5.48 29.248 5.672 30.208C5.864 31.136 6.28 31.808 6.92 32.224C7.592 32.608 8.632 32.88 10.04 33.04V34C9.432 33.936 8.632 33.904 7.64 33.904C6.648 33.872 5.72 33.856 4.856 33.856C4.12 33.856 3.368 33.872 2.6 33.904C1.832 33.904 1.192 33.936 0.68 34V33.04C1.704 32.88 2.472 32.608 2.984 32.224C3.496 31.84 3.832 31.216 3.992 30.352C4.184 29.456 4.28 28.24 4.28 26.704V5.104C4.28 3.92 4.184 3.056 3.992 2.512C3.832 1.936 3.48 1.552 2.936 1.36C2.424 1.136 1.672 1.008 0.68 0.975999V0.0159998C1.192 0.0479994 1.832 0.079999 2.6 0.111999C3.368 0.143998 4.12 0.159998 4.856 0.159998C6.232 0.159998 7.576 0.143998 8.888 0.111999C10.232 0.079999 11.416 0.0479994 12.44 0.0159998L22.52 24.352L21.32 25.456L30.968 0.159998C31.512 0.159998 32.072 0.159998 32.648 0.159998C33.224 0.159998 33.8 0.159998 34.376 0.159998C35.784 0.159998 37.16 0.143998 38.504 0.111999C39.88 0.079999 41.016 0.0479994 41.912 0.0159998ZM60.2364 0.0159998V0.975999C59.1484 1.008 58.3164 1.136 57.7404 1.36C57.1964 1.552 56.8284 1.936 56.6364 2.512C56.4444 3.056 56.3484 3.92 56.3484 5.104V29.488C56.3484 30.48 56.4124 31.216 56.5404 31.696C56.7004 32.176 56.9884 32.496 57.4044 32.656C57.8524 32.816 58.5084 32.896 59.3724 32.896H61.7244C62.8124 32.896 63.8364 32.64 64.7964 32.128C65.7564 31.616 66.6204 30.896 67.3884 29.968C68.1564 29.008 68.7964 27.872 69.3084 26.56C69.8204 25.248 70.2044 23.792 70.4604 22.192H71.5644C71.4684 23.28 71.4204 24.688 71.4204 26.416C71.4204 27.152 71.4364 28.224 71.4684 29.632C71.5004 31.04 71.5964 32.496 71.7564 34C70.1244 33.936 68.2844 33.904 66.2364 33.904C64.1884 33.872 62.3644 33.856 60.7644 33.856C59.9644 33.856 58.9404 33.856 57.6924 33.856C56.4444 33.856 55.1004 33.872 53.6604 33.904C52.2204 33.904 50.7644 33.92 49.2924 33.952C47.8204 33.952 46.4284 33.968 45.1164 34V33.04C46.1404 32.976 46.9084 32.848 47.4204 32.656C47.9324 32.464 48.2684 32.08 48.4284 31.504C48.6204 30.928 48.7164 30.064 48.7164 28.912V5.104C48.7164 3.92 48.6204 3.056 48.4284 2.512C48.2684 1.936 47.9164 1.552 47.3724 1.36C46.8604 1.136 46.1084 1.008 45.1164 0.975999V0.0159998C45.9164 0.0479994 46.9884 0.079999 48.3324 0.111999C49.7084 0.143998 51.1644 0.159998 52.7004 0.159998C54.1084 0.159998 55.4844 0.143998 56.8284 0.111999C58.2044 0.079999 59.3404 0.0479994 60.2364 0.0159998Z" fill="#FAFFF3"/>
</svg>
